<?xml version="1.0" encoding="utf-8"?>
<!-- Generator: Adobe Illustrator 15.1.0, SVG Export Plug-In  -->
<!DOCTYPE svg PUBLIC "-//W3C//DTD SVG 1.1//EN" "http://www.w3.org/Graphics/SVG/1.1/DTD/svg11.dtd" [
	<!ENTITY ns_flows "http://ns.adobe.com/Flows/1.0/">
]>
<svg version="1.1"
	 xmlns="http://www.w3.org/2000/svg" xmlns:xlink="http://www.w3.org/1999/xlink" xmlns:a="http://ns.adobe.com/AdobeSVGViewerExtensions/3.0/"
	 x="0px" y="0px" width="187px" height="241px" viewBox="-6.95 -5.282 187 241"
	 overflow="visible" enable-background="new -6.95 -5.282 187 241" xml:space="preserve">
<defs>
</defs>
<path fill-rule="evenodd" clip-rule="evenodd" fill="#7ECDDA" stroke="#000000" stroke-width="2" stroke-miterlimit="10" d="M1,1
	c0,0,0,149,0,176s86.75,25,86.75,58.25C87.75,202,176,204,176,177s0-176,0-176H1z"/>
<path fill="#F0915C" d="M176,1h-17.342L1,158.657V177c0,0-1.945,9.593,7.085,11.886L176,20.475V1z"/>
<path fill-rule="evenodd" clip-rule="evenodd" fill="none" stroke="#000000" stroke-miterlimit="10" d="M110.573,144.231
	c-3.098-1.109-0.698,5.652-4.581,7.71c-1.533-5.078-3.014-10.152-6.215-15.202c-1.998-2.528-4.34-1.466-6.637-0.864
	c-11.561,16.085-2.307,31.882-6.531,47.867c-7.303-8.468,6.175-40.08-9.717-48.598c-8.715-4.674-15.896,6.908-26.965,10.883
	c-1.106-1.797-2.492-0.705-3.662-1.859c0.719-7.022-5.16-4.037-9.557-10.38c1.604-1.286,9.304-0.913,5.267-4.851
	c6.988-2.801,13.379,0.607,20.275-1.235c-11.494-10.554-25.142-4.613-33.997-15.774c3.545-3.572,6.4-0.004,9.796-2.045
	c-11.054-4.258-7.608-9.494-10.743-18.007c4.682-5.077,8.511,4.603,10.849-3.018c2.125,3.474,4.803,6.941,5.713,10.432
	c2.468-3.538,1.733-7.032-1.867-10.485c4.495-3.497,8.593-2.857,12.586-1.131c-0.204-6.276-8.489-4.112-9.56-10.377
	c2.514-2.847,4.533-0.533,6.637,0.862c-5.37-8.085-1.371-10.429-3.055-18.112c3.187,0.125,6.64-2.496,9.613-0.134
	c-0.754-3.812-3.621-7.595-4.661-11.401c6.181-5.979,10.748,5.665,13.771,6.498c0.304-5.736-7.503-11.362-7.952-17.09
	c2.513-2.847,4.53-0.531,6.636,0.861c0.463-2.872-0.303-5.728-2.055-8.569c4.703-1.642,2.841-3.908,4.583-7.708
	c3.606-1.592,9.617,4.79,9.744,8.465c3.325,1.678-0.358-4.317,4.398-5.794c6.672,6.915-0.292,14.019,1.816,20.997
	c3.329-5.462,1.993-10.858,8.295-16.36c2.037,4.113,3.674,8.232,1.687,12.398c1.187,0.95,2.651-0.973,4.029-1.968
	c-1.922,14.044-11.606,28.19-7.901,42.155c6.237-9.642,1.928-19.137,6.607-28.757c0.871,0.941,1.74,1.886,2.608,2.831
	c0.813-5.746,2.737-11.506,7.426-17.304c3.81,7.498,8.103,9.298,2.187,17.17c1.706,2.208,4.128-3.015,6.135-3.908
	c2.904,7.921-7.4,16.027-9.029,24.014c4.095,0.652,9.239-9.578,13.139-6.872c1.463,4.121-2.01,8.31-6.006,12.506
	c9.848,0.291-6.834,5.182-11.77,12.587c0.056,3.503,2.334,6.975,1.869,10.482c4.172-4.834,0.4-9.56,6.188-14.416
	c0.933,6.98,6.487-1.254,10.85-3.019c0.449,7.637-0.541,15.297-7.979,23.044c5.68-1.392,13.916-10.994,14.93-15.494
	c4.619,3.266,5.199-3.172,11.035-4.932c2.083,2.519,1.837,5.07-0.738,7.654c3.791,0.498,8.359-7.062,12.456-9.729
	c-0.188,6.919,7.726-6.409,10.85-3.016c4.644,3.438-6.197,7.093-0.053,10.51c-2.589,3.647-4.728,2.572-7.187,4.879
	c-2.359,3.686,3.742-0.839,4.527,2.803c-7.686,6.704-14.594,5.34-22.067,9.861c1.889,3.628,4.562-0.851,6.451,2.777
	c-0.888,3.197-5.187,6.442-6.69,9.649c-8.592-0.481-16.868-4.251-26.225,3.229c2.904,3.066,6.104,3.06,8.874,7.522
	c-4.865,4.015-1.826,11.513-7.929,12.531C111.278,147.406,109.32,145.842,110.573,144.231z M74.182,83.582
	c-1.156-3.844-2.141-12.662-8.322-13.264C67.356,74.158,69.844,82.957,74.182,83.582z M87.875,140.725
	c9.661-13.193,11.096-26.273,6.663-39.27C82.946,114.676,88.938,127.649,87.875,140.725z M66.939,98.972
	c-2.22,2.032-1.976,8.824,1.186,7.625c-1.376-0.847,0.046-6.056,2.291-3.852c4.685,11.725,0.017,28.657,14.667,37.063
	C85.438,126.458,88.078,103.141,66.939,98.972z M51.745,97.268c3.873,3.492,2.635,12.014,7.452,12.322
	c-1.472-4.12-3.503-8.234-1.687-12.399C55.347,99.714,53.831,95.542,51.745,97.268z"/>
<path fill-rule="evenodd" clip-rule="evenodd" fill="none" stroke="#000000" stroke-width="2" stroke-miterlimit="10" d="M1,1
	c0,0,0,149,0,176s86.75,25,86.75,58.25C87.75,202,176,204,176,177s0-176,0-176H1z"/>
<path fill-rule="evenodd" clip-rule="evenodd" fill="#49B249" stroke="#000000" stroke-width="1.25" stroke-linecap="round" stroke-linejoin="round" stroke-miterlimit="10" d="
	M110.573,144.231c-3.098-1.109-0.698,5.652-4.581,7.71c-1.534-5.078-3.014-10.152-6.215-15.202
	c-1.997-2.528-4.339-1.466-6.637-0.864c-11.561,16.085-2.306,31.882-6.531,47.867c-7.303-8.468,6.175-40.08-9.717-48.598
	c-8.715-4.674-15.896,6.908-26.965,10.883c-1.106-1.797-2.492-0.705-3.662-1.859c0.719-7.022-5.16-4.037-9.557-10.38
	c1.604-1.286,9.304-0.913,5.267-4.851c6.988-2.801,13.379,0.607,20.275-1.235c-11.494-10.554-25.142-4.613-33.997-15.774
	c3.545-3.572,6.4-0.004,9.796-2.045c-11.054-4.258-7.608-9.494-10.743-18.007c4.682-5.077,8.511,4.603,10.849-3.018
	c2.125,3.474,4.803,6.941,5.713,10.432c2.468-3.538,1.733-7.032-1.867-10.485c4.495-3.497,8.593-2.857,12.586-1.131
	c-0.204-6.276-8.489-4.112-9.56-10.377c2.514-2.847,4.533-0.533,6.637,0.862c-5.37-8.085-1.371-10.429-3.055-18.112
	c3.187,0.125,6.64-2.496,9.613-0.134c-0.754-3.812-3.621-7.595-4.661-11.401c6.181-5.979,10.748,5.665,13.771,6.498
	c0.304-5.736-7.503-11.362-7.952-17.09c2.513-2.847,4.53-0.531,6.636,0.861c0.463-2.872-0.303-5.728-2.055-8.569
	c4.703-1.642,2.841-3.908,4.583-7.708c3.606-1.592,9.617,4.79,9.744,8.465c3.325,1.678-0.358-4.317,4.398-5.794
	c6.672,6.915-0.292,14.019,1.816,20.997c3.329-5.462,1.993-10.858,8.295-16.36c2.038,4.113,3.674,8.232,1.687,12.398
	c1.187,0.95,2.651-0.973,4.029-1.968c-1.922,14.044-11.606,28.19-7.901,42.155c6.237-9.642,1.927-19.137,6.608-28.757
	c0.871,0.941,1.739,1.886,2.608,2.831c0.814-5.746,2.737-11.506,7.426-17.304c3.81,7.498,8.103,9.298,2.186,17.17
	c1.707,2.208,4.128-3.015,6.135-3.908c2.904,7.921-7.4,16.027-9.03,24.014c4.095,0.652,9.24-9.578,13.139-6.872
	c1.463,4.121-2.009,8.31-6.005,12.506c9.847,0.291-6.834,5.182-11.77,12.587c0.056,3.503,2.334,6.975,1.87,10.482
	c4.171-4.834,0.4-9.56,6.188-14.416c0.932,6.98,6.487-1.254,10.85-3.019c0.449,7.637-0.541,15.297-7.979,23.044
	c5.679-1.392,13.915-10.994,14.93-15.494c4.619,3.266,5.199-3.172,11.035-4.932c2.083,2.519,1.837,5.07-0.739,7.654
	c3.792,0.498,8.359-7.062,12.457-9.729c-0.188,6.919,7.726-6.409,10.85-3.016c4.644,3.438-6.197,7.093-0.053,10.51
	c-2.589,3.647-4.728,2.572-7.187,4.879c-2.358,3.686,3.742-0.839,4.528,2.803c-7.686,6.704-14.594,5.34-22.067,9.861
	c1.889,3.628,4.562-0.851,6.451,2.777c-0.888,3.197-5.187,6.442-6.69,9.649c-8.592-0.481-16.868-4.251-26.225,3.229
	c2.905,3.066,6.104,3.06,8.874,7.522c-4.865,4.015-1.826,11.513-7.928,12.531C111.278,147.406,109.32,145.842,110.573,144.231z
	 M74.182,83.582c-1.156-3.844-2.141-12.662-8.322-13.264C67.356,74.158,69.844,82.957,74.182,83.582z M87.875,140.725
	c9.661-13.193,11.096-26.273,6.662-39.27C82.946,114.676,88.938,127.649,87.875,140.725z M66.939,98.972
	c-2.22,2.032-1.976,8.824,1.186,7.625c-1.376-0.847,0.046-6.056,2.291-3.852c4.685,11.725,0.017,28.657,14.667,37.063
	C85.438,126.458,88.078,103.141,66.939,98.972z M51.745,97.268c3.873,3.492,2.635,12.014,7.452,12.322
	c-1.472-4.12-3.503-8.234-1.687-12.399C55.347,99.714,53.831,95.542,51.745,97.268z"/>
</svg>
